# xmcd CD database file
#
# Track frame offsets:
#	150
#	16799
#	32668
#	48816
#	62331
#	79538
#	97469
#	112767
#	129026
#	144366
#	161336
#	178389
#	193562
#	210755
#
# Disc length: 3044 seconds
#
# Revision: 4
# Processed by: cddbd v1.5.2PL0 Copyright (c) Steve Scherf et al.
# Submitted via: CDex 1.70beta2
#
DISCID=a20be20e
DTITLE=Various Artist - Maximum Dance - 7 '97
DYEAR=1997
DGENRE=Dance
TTITLE0=Space Frog - X-Ray (Follow Me)
TTITLE1=Sash! Feat. Rodriguez - Ecuador
TTITLE2=Disco Citizens - Footprint
TTITLE3=Hypertrophy - Just Come Back To Me
TTITLE4=Nalin and Kane - Beachball
TTITLE5=Chicane - Sunstroke
TTITLE6=Porn Kings - Amour
TTITLE7=Disco Nation - Rock Da Jam
TTITLE8=Klubbheads - Discohopping
TTITLE9=Flip Da Scrip - You Can Run
TTITLE10=Boy George - Love Is Leaving
TTITLE11=Gala - Let A Boy Cry
TTITLE12=Marshall - Sir Duke
TTITLE13=Bed and Breakfast, Mola Adebesi, Squeezer - Get It Right
EXTD=YEAR: 1997
EXTT0=
EXTT1=
EXTT2=
EXTT3=
EXTT4=
EXTT5=
EXTT6=
EXTT7=
EXTT8=
EXTT9=
EXTT10=
EXTT11=
EXTT12=
EXTT13=
PLAYORDER=
